# xmcd
#
# Track frame offsets:
#	150
#	11751
#	26358
#	39378
#	51950
#	64354
#	76646
#	89168
#	102445
#	115225
#	126752
#	139139
#	152132
#	164354
#	179891
#	189353
#	205013
#	219243
#	231735
#	244693
#
# Disc length: 3421 seconds
#
# Revision: 1
# Processed by: cddbd v1.5.2PL0 Copyright (c) Steve Scherf et al.
# Submitted via: audiograbber 1.83.01
#
DISCID=1d0d5b14
DTITLE=Sonny Terry and Brownie McGhee - 1938/1946
DYEAR=1900
DGENRE=Blues
TTITLE0=Meand and no good woman
TTITLE1=Mountain blues
TTITLE2=Train whistle blues
TTITLE3=Harmonica stomp
TTITLE4=Me and my dog blues
TTITLE5=Back door stranger
TTITLE6=Death of Blind Boy Fuller
TTITLE7=I'm a black woman's man
TTITLE8=Key to my door
TTITLE9=Done what my Lord said
TTITLE10=Workingman's blues
TTITLE11=Back home blues
TTITLE12=Swing, soldier, swing
TTITLE13=The Red Cross store
TTITLE14=Fox chase
TTITLE15=Lonesome train
TTITLE16=Knockabout blues (Carolina blues)
TTITLE17=Run awy women (Hootin' the blues)
TTITLE18=Shake down
TTITLE19=Mean ole Frisco
EXTD=
EXTT0=
EXTT1=
EXTT2=
EXTT3=
EXTT4=
EXTT5=
EXTT6=
EXTT7=
EXTT8=
EXTT9=
EXTT10=
EXTT11=
EXTT12=
EXTT13=
EXTT14=
EXTT15=
EXTT16=
EXTT17=
EXTT18=
EXTT19=
PLAYORDER=
